<svg xmlns="http://www.w3.org/2000/svg">
  <symbol viewBox="0 0 27 34" id="icon-html">
<path
            d="M13.64.02 13.5 0 0 1.4v24.61L13.5 34 27 26.01V1.41L13.64 0Zm11.6 25L13.5 31.96 1.77 25.02v-10.1l11.68 6.93.02 1.25-8.02-4.75v1.23l8.04 4.8.02 1.3-8.05-4.76v1.22l8.04 4.81 8.12-4.83V16.9l3.62-2.15v10.26Zm0-11.57L22 15.33l-1.48.88-7.06-4.19-.01 1.23 6.04 3.57-.06.03-.13.07-.86.5-4.98-2.95-.01 1.22 3.93 2.33-.93.61-.02.01-2.97-1.74-.01 1.23 1.94 1.13-1.98 1.19L1.8 13.58l11.63-6.96 11.8 6.83Zm0-1.22L13.43 5.3 1.77 12.22V2.99L13.5 1.76 25.23 3v9.24Z"
            fill="#666" />
  </symbol>

  <symbol viewBox="0 0 140 194" id="icon-slim-cat" fill="none">
<g clip-path="url(#clip0_2403_757)">
<path d="M109.68 0H108.92C107.636 0.725875 106.614 1.83883 106 3.18C104.875 5.34423 104.009 7.63331 103.42 10C103.294 10.7116 102.934 11.3611 102.398 11.8462C101.863 12.3313 101.181 12.6246 100.46 12.68C98.2558 13.06 96.1675 13.9386 94.3546 15.2489C92.5418 16.5591 91.0523 18.2663 90 20.24C88.5532 22.8026 87.3158 25.478 86.3 28.24C83.46 35.6 81.28 43.2 78.6 50.62C77.34 54 77.28 54 73.48 54C68.94 54 69.26 53.3 69.2 58.3C69.2 59.88 69.68 60.68 71.36 60.6C71.88 60.6 72.66 60.34 72.86 61.02C73.06 61.7 72.38 62 71.98 62.4C69.6086 64.8073 66.6075 66.4984 63.32 67.28C59.52 68.3 55.64 69.1 51.94 70.34C42.44 73.52 33.66 77.96 26.82 85.48C22.8206 90.1507 19.6177 95.4483 17.34 101.16C10 118.44 6.44 136.64 3.68 155.02C2.38 163.64 1.46 172.3 0.76 181.02C0.4 185.3 0 189.64 0 194H66.66C66.7707 193.12 66.6102 192.227 66.2 191.44C65.5589 189.844 64.5171 188.441 63.1753 187.365C61.8335 186.29 60.237 185.578 58.54 185.3C57.14 184.98 56.98 184.56 57.84 183.46C59.2427 181.588 60.318 179.492 61.02 177.26C64.28 167.64 65.54 157.6 67.12 147.66C68.0125 140.068 70.3477 132.716 74 126C76.8488 121.057 80.6486 116.727 85.18 113.26C86.84 112 86.9 112 87.18 114.14C87.38 115.56 87.42 117.02 87.52 118.46C88.1202 127.909 87.9998 137.39 87.16 146.82C86.4048 154.13 86.3044 161.492 86.86 168.82C87.6551 177.327 89.1739 185.751 91.4 194H118C117.653 191.835 116.656 189.826 115.142 188.241C113.627 186.655 111.667 185.567 109.52 185.12C107.013 184.722 104.45 184.858 102 185.52C100.8 185.8 100.3 185.52 100.2 184.22C99.3725 173.632 100.046 162.98 102.2 152.58C104.868 140.574 106.91 128.438 108.32 116.22C108.845 111.286 110.398 106.517 112.88 102.22C115.26 97.98 117.34 93.58 119.68 89.32C120.609 87.771 121.168 86.0286 121.314 84.2282C121.46 82.4279 121.188 80.6182 120.52 78.94C119.98 77.52 119.46 76.08 118.8 74.72C116.8 70.82 114.8 66.96 112.96 63.02C111.98 61.02 112.2 60.78 114.38 60.72C117.64 60.72 117.64 60.72 117.7 57.44C117.7 57 117.7 56.56 117.7 56.12C117.7 54.74 117.18 53.98 115.7 54.12C114.7 54.12 113.7 54.12 112.66 54.12C111.28 54.12 110.88 53.54 111.22 52.12C111.895 49.8116 113.222 47.7473 115.042 46.1755C116.862 44.6037 119.098 43.5912 121.48 43.26C125.911 42.8758 130.376 43.1657 134.72 44.12C135.221 44.2779 135.765 44.2322 136.232 43.9927C136.7 43.7531 137.055 43.3391 137.22 42.84C138.02 40.84 138.9 38.84 139.8 36.84C140.004 36.4852 140.094 36.0763 140.058 35.6686C140.023 35.2608 139.863 34.8739 139.6 34.56C133.2 26.44 126.26 18.86 116.8 14C116.343 13.8033 115.942 13.4952 115.635 13.1039C115.328 12.7127 115.123 12.2506 115.04 11.76C114.505 8.90102 113.653 6.11051 112.5 3.44C111.959 2.01723 110.969 0.809563 109.68 0V0Z" fill="black"/>
</g>
<defs>
<clipPath id="clip0_2403_757">
<rect width="140" height="194" fill="white"/>
</clipPath>
</defs>
</symbol>

<symbol viewBox="0 0 268 112" fill="none" id="icon-power-cat">
<g clip-path="url(#clip0_2403_776)">
<path d="M246.2 11.5999C248.509 7.92605 251.578 4.7891 255.2 2.39989C257.2 0.99989 258.4 0.99989 259.6 3.59989C261.2 7.39989 262.6 11.3999 261.4 15.5999C261.182 16.3122 261.14 17.0671 261.28 17.799C261.419 18.5309 261.735 19.2177 262.2 19.7999C263.4 21.3999 264.4 22.9999 265.4 24.3999C266.761 26.1274 267.644 28.1825 267.96 30.359C268.276 32.5354 268.014 34.7567 267.2 36.7999C266.466 38.7835 266.327 40.9384 266.8 42.9999C267.2 44.9799 267.2 47.0199 266.8 48.9999C266.638 50.4827 266.038 51.8837 265.076 53.0237C264.115 54.1637 262.835 54.991 261.4 55.3999C258.842 55.8867 256.559 57.3137 255 59.3999C254.811 59.7071 254.546 59.9605 254.231 60.1357C253.916 60.3108 253.561 60.4018 253.2 60.3999C250.8 60.7999 244.8 55.3999 244.8 52.9999V51.7999C245 44.5999 244.6 43.9999 238 40.9999C236.619 40.5127 235.381 39.6877 234.4 38.5999C233.2 36.9999 231.6 37.1999 229.8 37.7999C228 38.3999 227 39.5999 227.2 41.5999C227.803 46.4416 228.004 51.325 227.8 56.1999C227.813 56.7563 227.95 57.3027 228.2 57.7999C234.4 66.7999 236.8 77.3999 239.8 87.5999C242.2 95.3999 246.6 99.5999 254.6 100.2C255.88 100.302 257.151 100.503 258.4 100.8C260.044 101.064 261.57 101.815 262.783 102.956C263.995 104.097 264.837 105.575 265.2 107.2C266.6 111.4 265.8 112.4 261.6 112.4H248.6C246.917 112.485 245.267 111.911 244 110.8C241.976 109.092 239.677 107.739 237.2 106.8C234.462 105.789 232.093 103.977 230.4 101.6C228.057 98.3269 225.376 95.3102 222.4 92.5999C216.8 86.7999 210.8 81.1999 205.6 75.1999C201.641 71.1115 199.358 65.6885 199.2 59.9999C199.2 58.1999 198.8 57.3999 196.8 58.1999C196.201 58.5798 195.509 58.7874 194.8 58.7999C189.2 58.7999 186.4 62.1999 184.4 67.1999C182.6 71.3999 180.2 75.3999 178 79.5999C176.753 82.229 176.071 85.0907 176 87.9999C176 92.7999 177.2 94.3999 181.6 95.9999C184.4 96.9999 187 97.9999 188.4 100.8C190 104 189.6 104.8 186.2 105H172.6C171.816 105.078 171.027 104.907 170.346 104.512C169.664 104.117 169.123 103.518 168.8 102.8L165.2 96.7999C164.139 95.2344 163.459 93.4419 163.216 91.5663C162.973 89.6907 163.173 87.7842 163.8 85.9999C164.666 82.5269 164.734 78.9031 164 75.3999C163.496 72.9601 163.539 70.4389 164.127 68.0179C164.715 65.597 165.833 63.3367 167.4 61.3999C168.6 59.9999 168.6 59.3999 166.6 58.9999C158.422 57.2627 150.493 54.5079 143 50.7999C142.947 50.7999 142.896 50.7788 142.859 50.7413C142.821 50.7038 142.8 50.6529 142.8 50.5999C136.4 48.1999 135.2 48.5999 133.4 55.1999C131.8 60.7999 130.2 66.3999 129 72.1999C127.6 78.5999 129.2 84.5999 131.2 90.5999C132 92.9999 134.4 92.7999 136.2 93.3999C140.2 94.5999 143.6 96.1999 145.2 100.4C146.6 103.6 146.4 104 143 104C139.6 104 136.2 103.8 132.6 104C129.562 104.055 126.597 103.067 124.2 101.2C114.6 94.7999 111.8 84.9999 111 74.3999C110.6 67.7999 107 62.5999 102.8 57.5999C102 56.5999 101.2 56.1999 100 56.9999C95.707 59.367 91.2249 61.3739 86.6 62.9999C76.9485 66.4078 68.4793 72.5168 62.2 80.5999C59.8553 83.5499 58.3368 87.07 57.8 90.7999C57.2 94.3999 58.2 95.9999 61.8 96.9999C65.4 97.9999 67.2 99.9999 67.6 103.8C67.8 105.4 67.2 106.2 65.6 106.2H49.4C48.8698 106.162 48.3566 105.997 47.9039 105.719C47.4512 105.44 47.0725 105.056 46.8 104.6C44.2877 101.489 42.9433 97.5978 43 93.5999C42.8951 86.6898 43.4982 79.7871 44.8 72.9999C45.067 70.9673 45.8259 69.0305 47.0108 67.3576C48.1958 65.6846 49.7711 64.3261 51.6 63.3999C63.4 57.7999 69.6 47.1999 75.2 36.1999C76.4 33.9999 75.4 33.5999 73.4 33.7999C67.8027 34.5769 62.4994 36.7809 58 40.1999C52.1084 44.4976 46.5585 49.2451 41.4 54.3999C35.8993 59.9872 28.6054 63.4571 20.8 64.1999C6.20002 64.9999 -0.599978 56.7999 2.18973e-05 43.5999C0.134147 39.0991 1.83132 34.7854 4.80002 31.3999C5.83206 30.0619 7.23949 29.0619 8.84256 28.5275C10.4456 27.9931 12.1716 27.9487 13.8 28.3999C16.8 29.1999 17.6 30.7999 16.4 33.7999C15.8 34.9999 15 35.9999 14.4 37.1999C13.5372 38.4258 12.8631 39.7741 12.4 41.1999C10.2 47.1999 13.2 51.3999 19.4 51.9999C26 52.5999 31.4 49.7999 36.4 45.7999C42.4239 40.9764 47.8014 35.3972 52.4 29.1999C55.8385 24.6747 60.1682 20.9025 65.1217 18.1161C70.0751 15.3298 75.5472 13.5886 81.2 12.9999C85.8 12.3999 89.8 10.3999 94.2 9.19989C102.429 6.6911 110.998 5.47661 119.6 5.59989C123.584 5.76582 127.553 5.01308 131.2 3.39989C141 -0.60011 151.2 -0.60011 161.4 1.39989C169.4 2.99989 177.4 4.99989 185.2 6.99989C189.842 7.86484 194.615 7.72847 199.2 6.59989C207.977 4.37496 216.956 3.03494 226 2.59989C231.925 2.31162 237.83 3.47897 243.2 5.99989C247.2 7.79989 247.2 7.79989 246.2 11.5999Z" fill="black"/>
</g>
<defs>
<clipPath id="clip0_2403_776">
<rect width="268" height="112" fill="white"/>
</clipPath>
</defs>
</symbol>

<symbol viewBox="0 0 31 32" fill="none" id="icon-leaf">
<g clip-path="url(#clip0_130_911)">
<path d="M28.3438 2.767C28.2434 2.317 27.8647 2 27.4325 2C27.4306 2 27.4288 2 27.4269 2C22.4891 2.033 10.4816 2.916 5.63375 10.38C3.11562 14.258 2.89906 19.293 4.98969 25.345C5.00562 25.392 5.03844 25.424 5.06 25.467C4.31281 27.44 4.02312 28.753 4.01562 28.79C3.90687 29.33 4.23031 29.862 4.73656 29.978C4.80219 29.993 4.86781 30 4.93344 30C5.36562 30 5.75469 29.679 5.84937 29.21C5.86906 29.108 8.25781 18.837 16.7028 12.832C17.1341 12.526 17.2503 11.905 16.9625 11.445C16.6747 10.985 16.0934 10.86 15.6622 11.168C10.8734 14.573 7.92406 19.176 6.18969 22.824C4.94844 18.246 5.27375 14.447 7.17594 11.519C10.9194 5.755 19.7984 4.365 25.1581 4.071C24.005 5.872 22.745 9.174 22.745 15C22.745 18.12 21.9153 20.522 20.2803 22.14C17.6591 24.731 13.4009 24.974 10.2866 24.724C9.76906 24.679 9.32 25.095 9.28062 25.646C9.24125 26.196 9.62844 26.676 10.1441 26.718C10.7675 26.769 11.4331 26.8 12.125 26.8C15.2956 26.8 18.9941 26.137 21.5544 23.606C23.5888 21.595 24.62 18.7 24.62 15.001C24.62 5.902 27.8356 3.905 27.8516 3.896C28.2416 3.687 28.4459 3.219 28.3438 2.767Z" fill="white"/>
</g>
<defs>
<clipPath id="clip0_130_911">
<rect width="30" height="32" fill="white" transform="translate(0.5)"/>
</clipPath>
</defs>
</symbol>

<symbol viewBox="0 0 26 30" fill="none" id="icon-eat">
<path fill-rule="evenodd" clip-rule="evenodd" d="M19.1173 0.0761497C19.491 -0.0786313 19.9211 0.00692445 20.2071 0.292922C21.1156 1.20142 22.3038 3.17065 23.2659 6.21082C24.2373 9.28039 25 13.5081 25 19C25 19.5523 24.5523 20 24 20H20.5V29C20.5 29.5523 20.0523 30 19.5 30C18.9477 30 18.5 29.5523 18.5 29V1.00003C18.5 0.595567 18.7436 0.230931 19.1173 0.0761497ZM20.5 18H22.9912C22.9053 13.1836 22.2051 9.48755 21.3591 6.81424C21.0807 5.93457 20.7885 5.1715 20.5 4.51895V18Z" fill="white"/>
<path fill-rule="evenodd" clip-rule="evenodd" d="M6.5 0C7.05228 0 7.5 0.447715 7.5 1V29C7.5 29.5523 7.05228 30 6.5 30C5.94772 30 5.5 29.5523 5.5 29V1C5.5 0.447715 5.94772 0 6.5 0Z" fill="white"/>
<path fill-rule="evenodd" clip-rule="evenodd" d="M2 0C2.55228 0 3 0.447715 3 1V6.5C3 7.05686 3.19203 7.81518 3.70088 8.41656C4.18001 8.98281 5.01446 9.5 6.49993 9.5C7.05221 9.5 7.49993 9.94771 7.49993 10.5C7.49993 11.0523 7.05221 11.5 6.49993 11.5C4.48547 11.5 3.06995 10.7672 2.1741 9.70844C1.30797 8.68482 1 7.44314 1 6.5V1C1 0.447715 1.44772 0 2 0Z" fill="white"/>
<path fill-rule="evenodd" clip-rule="evenodd" d="M11 0C10.4477 0 10 0.447715 10 1V6.5C10 7.05686 9.80797 7.81518 9.29912 8.41656C8.81999 8.98281 7.9854 9.5 6.49993 9.5C5.94765 9.5 5.50007 9.94771 5.50007 10.5C5.50007 11.0523 5.94765 11.5 6.49993 11.5C8.51439 11.5 9.93005 10.7672 10.8259 9.70844C11.692 8.68482 12 7.44314 12 6.5V1C12 0.447715 11.5523 0 11 0Z" fill="white"/>
</symbol>

<symbol viewBox="0 0 32 33" fill="none" id="icon-alarm">
<ellipse cx="21.2042" cy="11.3297" rx="1.0873" ry="1.08512" fill="white"/>
<ellipse cx="10.3311" cy="11.3297" rx="1.08731" ry="1.08512" fill="white"/>
<ellipse cx="10.3311" cy="24.3512" rx="1.08731" ry="1.08512" fill="white"/>
<ellipse cx="15.7677" cy="26.5214" rx="1.0873" ry="1.08512" fill="white"/>
<ellipse cx="7.06924" cy="17.7748" rx="1.08731" ry="1.08512" fill="white"/>
<ellipse cx="24.4661" cy="17.7748" rx="1.0873" ry="1.08512" fill="white"/>
<ellipse cx="21.2042" cy="24.3512" rx="1.0873" ry="1.08512" fill="white"/>
<mask id="path-8-inside-1_2403_814" fill="white">
<path fill-rule="evenodd" clip-rule="evenodd" d="M20.9215 29.0581C21.3298 28.8622 21.8226 28.9298 22.1385 29.2542L23.9644 31.1292C24.2319 31.4039 24.6734 31.4039 24.941 31.1292C25.1987 30.8645 25.1987 30.4427 24.941 30.1781L23.5843 28.7849C23.1584 28.3475 23.2228 27.6356 23.682 27.2333C26.3238 24.9195 28 21.4688 28 17.6145C28 10.6477 22.5235 5 15.7678 5C9.01218 5 3.53564 10.6477 3.53564 17.6145C3.53564 21.4288 5.17729 24.8477 7.77166 27.1608C8.22438 27.5644 8.28489 28.2708 7.86173 28.7054L6.42757 30.1781C6.16985 30.4427 6.16984 30.8645 6.42756 31.1291C6.69513 31.4039 7.13664 31.4039 7.40421 31.1292L9.28384 29.199C9.60245 28.8718 10.1004 28.8061 10.5102 29.0076C12.103 29.7907 13.8858 30.229 15.7678 30.229C17.609 30.229 19.3553 29.8095 20.9215 29.0581ZM15.7678 28.8274C21.7728 28.8274 26.6409 23.8072 26.6409 17.6145C26.6409 11.4218 21.7728 6.40161 15.7678 6.40161C9.7628 6.40161 4.89478 11.4218 4.89478 17.6145C4.89478 23.8072 9.7628 28.8274 15.7678 28.8274ZM15.0083 17.298V13.5001V9.94092C15.0083 9.50942 15.3581 9.15963 15.7895 9.15963C16.221 9.15963 16.5708 9.50942 16.5708 9.94092V13.5001V17.298V17.8406V18.1226C16.5708 18.5661 16.2113 18.9257 15.7677 18.9257C15.3483 18.9257 15.0083 18.5857 15.0083 18.1663V17.8406V17.298Z"/>
</mask>
<path fill-rule="evenodd" clip-rule="evenodd" d="M20.9215 29.0581C21.3298 28.8622 21.8226 28.9298 22.1385 29.2542L23.9644 31.1292C24.2319 31.4039 24.6734 31.4039 24.941 31.1292C25.1987 30.8645 25.1987 30.4427 24.941 30.1781L23.5843 28.7849C23.1584 28.3475 23.2228 27.6356 23.682 27.2333C26.3238 24.9195 28 21.4688 28 17.6145C28 10.6477 22.5235 5 15.7678 5C9.01218 5 3.53564 10.6477 3.53564 17.6145C3.53564 21.4288 5.17729 24.8477 7.77166 27.1608C8.22438 27.5644 8.28489 28.2708 7.86173 28.7054L6.42757 30.1781C6.16985 30.4427 6.16984 30.8645 6.42756 31.1291C6.69513 31.4039 7.13664 31.4039 7.40421 31.1292L9.28384 29.199C9.60245 28.8718 10.1004 28.8061 10.5102 29.0076C12.103 29.7907 13.8858 30.229 15.7678 30.229C17.609 30.229 19.3553 29.8095 20.9215 29.0581ZM15.7678 28.8274C21.7728 28.8274 26.6409 23.8072 26.6409 17.6145C26.6409 11.4218 21.7728 6.40161 15.7678 6.40161C9.7628 6.40161 4.89478 11.4218 4.89478 17.6145C4.89478 23.8072 9.7628 28.8274 15.7678 28.8274ZM15.0083 17.298V13.5001V9.94092C15.0083 9.50942 15.3581 9.15963 15.7895 9.15963C16.221 9.15963 16.5708 9.50942 16.5708 9.94092V13.5001V17.298V17.8406V18.1226C16.5708 18.5661 16.2113 18.9257 15.7677 18.9257C15.3483 18.9257 15.0083 18.5857 15.0083 18.1663V17.8406V17.298Z" fill="white"/>
<rect x="15" y="6" width="4" height="1.5" transform="rotate(-90 15 6)" fill="white"/>
<rect x="8" y="2" width="15.5" height="1.5" rx="0.75" fill="white"/>
</symbol>

<symbol viewBox="0 0 37 39" fill="none" id="icon-powder">
<g clip-path="url(#clip0_2403_802)" filter="url(#filter0_d_2403_802)">
<path d="M24.7762 18.4731C23.0702 18.4731 21.6877 19.9515 21.6877 21.7742C21.6877 23.5983 23.0706 25.0761 24.7762 25.0761C26.4817 25.0761 27.8642 23.5978 27.8642 21.7742C27.8642 19.951 26.4813 18.4731 24.7762 18.4731ZM24.7762 23.4864C23.8921 23.4864 23.1753 22.7201 23.1753 21.7751C23.1753 20.8291 23.8921 20.0633 24.7762 20.0633C25.6602 20.0633 26.3775 20.8291 26.3775 21.7751C26.3775 22.7201 25.6602 23.4864 24.7762 23.4864Z" fill="white"/>
<path d="M15.6068 -0.0101318C13.8464 -0.0101318 12.4195 1.51468 12.4195 3.39696C12.4195 5.27924 13.8459 6.80357 15.6068 6.80357C17.3676 6.80357 18.7941 5.27973 18.7941 3.39696C18.7936 1.5142 17.3672 -0.0101318 15.6068 -0.0101318ZM15.6063 5.46573C14.5374 5.46573 13.671 4.5396 13.671 3.39648C13.671 2.25384 14.5374 1.32723 15.6063 1.32723C16.6757 1.32723 17.5421 2.25384 17.5421 3.39648C17.5421 4.5396 16.6757 5.46573 15.6063 5.46573Z" fill="white"/>
<path d="M12.2269 17.6105C10.9332 17.6105 9.88562 18.7303 9.88562 20.1132C9.88562 21.4956 10.9332 22.616 12.2269 22.616C13.5206 22.616 14.5682 21.4956 14.5682 20.1132C14.5682 18.7308 13.5206 17.6105 12.2269 17.6105ZM12 19.5C11.541 19.5 13.1582 20.6039 13.1582 20.1132C13.1582 19.6235 11.541 20.5 12 20.5C12.4586 20.5 13.057 19.6226 13.057 20.1123C13.057 20.6029 12.4586 19.5 12 19.5Z" fill="white"/>
<path d="M22.5002 9.76265C22.5002 9.76265 25.5402 8.9242 28.6781 11.2565C29.5853 12.0164 30.4435 12.5929 29.8304 13.379C29.4869 13.7195 29.1933 14.0358 28.1144 12.8549C27.0605 12.0949 25.3948 10.9566 22.5002 11.4134C21.3724 11.6498 20.5386 11.9641 18.9445 13.5626C17.3509 15.161 14.9724 16.2877 12.4472 16.0518C9.92191 15.8164 8.59833 14.7939 7.2009 13.5098C6.90682 13.0903 6.90682 12.6447 7.0781 12.3826C7.24938 12.1206 7.9114 11.8585 8.27933 12.2514C8.64727 12.6447 10.3877 14.217 12.1037 14.3216C13.8201 14.4262 15.5366 14.5313 17.8407 12.356C20.1467 10.1821 21.299 10.0247 22.5002 9.76265Z" fill="white"/>
<mask id="path-5-inside-1_2403_802" fill="white">
<path d="M32.6456 26.8156V8.15743C32.6456 7.57909 32.2718 7.5074 32.1218 7.50208H31.6161C31.1227 7.50208 31.0796 8.05862 31.0783 8.24075C31.0783 8.25867 31.0783 8.27368 31.0783 8.29161C31.0783 8.29306 31.0783 8.30129 31.0783 8.30129C31.0796 11.9099 31.0874 26.5545 31.0765 26.8412C31.0642 27.1692 31.0031 28.0076 30.2554 28.7284C29.447 29.4234 28.6378 29.3314 28.6378 29.3314C28.6378 29.3314 8.46055 29.3314 7.98251 29.3048C7.60279 29.2394 6.94077 29.095 6.37663 28.2958C5.81294 27.4966 5.92351 26.4484 5.92351 26.4484V8.31486C5.92351 7.4764 5.24926 7.50256 5.24926 7.50256H4.94204C4.40599 7.50256 4.3566 8.09059 4.35388 8.27901C4.35388 11.7408 4.35388 25.6468 4.35388 26.816C4.35388 28.1529 4.80746 29.2137 5.90176 30.1529C6.9956 31.0916 8.27658 31.0093 8.27658 31.0093C8.27658 31.0093 28.0002 31.0093 28.8584 31.0069C29.7166 31.0044 30.844 30.5903 31.7743 29.4515C32.7036 28.3128 32.6456 26.8156 32.6456 26.8156Z"/>
</mask>
<path d="M32.6456 26.8156V8.15743C32.6456 7.57909 32.2718 7.5074 32.1218 7.50208H31.6161C31.1227 7.50208 31.0796 8.05862 31.0783 8.24075C31.0783 8.25867 31.0783 8.27368 31.0783 8.29161C31.0783 8.29306 31.0783 8.30129 31.0783 8.30129C31.0796 11.9099 31.0874 26.5545 31.0765 26.8412C31.0642 27.1692 31.0031 28.0076 30.2554 28.7284C29.447 29.4234 28.6378 29.3314 28.6378 29.3314C28.6378 29.3314 8.46055 29.3314 7.98251 29.3048C7.60279 29.2394 6.94077 29.095 6.37663 28.2958C5.81294 27.4966 5.92351 26.4484 5.92351 26.4484V8.31486C5.92351 7.4764 5.24926 7.50256 5.24926 7.50256H4.94204C4.40599 7.50256 4.3566 8.09059 4.35388 8.27901C4.35388 11.7408 4.35388 25.6468 4.35388 26.816C4.35388 28.1529 4.80746 29.2137 5.90176 30.1529C6.9956 31.0916 8.27658 31.0093 8.27658 31.0093C8.27658 31.0093 28.0002 31.0093 28.8584 31.0069C29.7166 31.0044 30.844 30.5903 31.7743 29.4515C32.7036 28.3128 32.6456 26.8156 32.6456 26.8156Z" fill="white"/>
</g>
<defs>
<filter id="filter0_d_2403_802" x="0" y="0" width="37" height="39" filterUnits="userSpaceOnUse" color-interpolation-filters="sRGB">
<feFlood flood-opacity="0" result="BackgroundImageFix"/>
<feColorMatrix in="SourceAlpha" type="matrix" values="0 0 0 0 0 0 0 0 0 0 0 0 0 0 0 0 0 0 127 0" result="hardAlpha"/>
<feOffset dy="4"/>
<feGaussianBlur stdDeviation="2"/>
<feComposite in2="hardAlpha" operator="out"/>
<feColorMatrix type="matrix" values="0 0 0 0 0 0 0 0 0 0 0 0 0 0 0 0 0 0 0.25 0"/>
<feBlend mode="normal" in2="BackgroundImageFix" result="effect1_dropShadow_2403_802"/>
<feBlend mode="normal" in="SourceGraphic" in2="effect1_dropShadow_2403_802" result="shape"/>
</filter>
<clipPath id="clip0_2403_802">
<rect width="29" height="31" fill="white" transform="translate(4)"/>
</clipPath>
</defs>
</symbol>

<symbol viewBox="0 0 27 17" fill="none" id="icon-vk">
<path d="M0 2.33876C0 1.48373 0.515103 1.02268 1.54531 0.955621L5.51515 0.980769C5.78158 0.980769 5.95921 1.10651 6.04802 1.35799C6.45655 2.61538 6.91392 3.70094 7.42014 4.61465C7.92637 5.52835 8.58801 6.58038 9.40507 7.77071C9.47611 7.9216 9.59157 7.99704 9.75143 7.99704C9.87576 7.99704 9.97345 7.93836 10.0445 7.82101L10.1244 7.54438L10.1511 3.19379C10.1511 2.89201 10.0756 2.69083 9.92461 2.59024C9.77363 2.48965 9.49388 2.4142 9.08535 2.36391C8.76563 2.31361 8.60577 2.12919 8.60577 1.81065C8.60577 1.74359 8.61465 1.69329 8.63241 1.65976C9.00542 0.57002 10.0711 0.0251479 11.8296 0.0251479L13.3216 0C13.9966 0 14.5561 0.15927 15.0001 0.477811C15.4442 0.796351 15.6662 1.29931 15.6662 1.98669V7.69527C15.7906 7.77909 15.906 7.82101 16.0126 7.82101C16.279 7.82101 16.5099 7.67012 16.7053 7.36834C18.6592 4.78649 19.716 3.05966 19.8759 2.18787C19.8759 2.1711 19.8936 2.12919 19.9291 2.06213C20.0535 1.81065 20.2577 1.5927 20.5419 1.40828C20.8261 1.22387 21.0748 1.09813 21.288 1.03107C21.359 0.997535 21.4389 0.980769 21.5277 0.980769H25.6574L25.9239 1.00592C26.2791 1.00592 26.5544 1.16519 26.7498 1.48373C26.8209 1.58432 26.8697 1.69329 26.8964 1.81065C26.923 1.92801 26.9408 2.04536 26.9496 2.16272C26.9585 2.28008 26.963 2.34714 26.963 2.36391V2.53994C26.8386 3.22732 26.5233 3.9608 26.0171 4.74038C25.5109 5.51997 24.867 6.36243 24.0855 7.26775C23.304 8.17308 22.8155 8.76825 22.6201 9.05326C22.4603 9.25444 22.3803 9.43886 22.3803 9.60651C22.3803 9.74063 22.4514 9.89152 22.5935 10.0592L26.4834 14.6864C26.6965 14.9546 26.8031 15.248 26.8031 15.5666C26.8031 15.9522 26.6432 16.2707 26.3235 16.5222C26.0038 16.7737 25.6219 16.9162 25.1779 16.9497L24.7249 16.9749H20.6752C20.6574 16.9749 20.6219 16.979 20.5686 16.9874C20.5153 16.9958 20.4798 17 20.462 17C20.0712 17 19.7071 16.8407 19.3696 16.5222C19.2453 16.3881 18.4105 15.3989 16.8652 13.5547C16.7764 13.4374 16.652 13.3284 16.4922 13.2278C16.4211 13.4961 16.3279 13.8817 16.2124 14.3846C16.097 14.8876 16.0126 15.248 15.9593 15.466L15.8794 15.8935C15.7018 16.4803 15.3287 16.8323 14.7604 16.9497L14.3874 16.9749H11.7763C10.3021 16.9749 8.83224 16.3378 7.36686 15.0636C5.90148 13.7894 4.58264 12.1423 3.41034 10.122C2.23803 8.10182 1.14566 5.75049 0.133216 3.06805C0.0444054 2.8501 0 2.607 0 2.33876ZM16.0126 8.85207C15.6396 8.85207 15.3021 8.75567 15.0001 8.56287C14.6982 8.37007 14.5472 8.10602 14.5472 7.77071V1.98669C14.5472 1.65138 14.4584 1.41248 14.2808 1.26997C14.1032 1.12747 13.7923 1.05621 13.3483 1.05621L11.8296 1.10651C11.0658 1.10651 10.4886 1.23225 10.0978 1.48373C10.8793 1.8358 11.2701 2.40582 11.2701 3.19379V7.61982C11.2346 8.03895 11.0569 8.38683 10.7372 8.66346C10.4175 8.94009 10.0623 9.0784 9.6715 9.0784C9.13863 9.0784 8.7301 8.83531 8.44591 8.34911C7.06046 6.37081 6.03025 4.4931 5.35529 2.71598L5.1155 2.06213L1.57195 2.03698C1.34104 2.03698 1.21227 2.04956 1.18562 2.0747C1.15898 2.09985 1.14566 2.1711 1.14566 2.28846C1.14566 2.43935 1.16342 2.59862 1.19895 2.76627L1.75845 4.17456C3.25048 7.81262 4.87127 10.6795 6.62085 12.7751C8.37042 14.8708 10.0889 15.9186 11.7763 15.9186H14.4406C14.5472 15.9186 14.6271 15.8893 14.6804 15.8306C14.7337 15.7719 14.7781 15.6588 14.8136 15.4911L14.8669 15.2396L15.3732 13.0266C15.5152 12.7249 15.6396 12.5237 15.7462 12.4231C15.9415 12.2387 16.1725 12.1465 16.4389 12.1465C16.8652 12.1465 17.3003 12.3895 17.7444 12.8757L20.0091 15.5917C20.1512 15.8097 20.3022 15.9186 20.462 15.9186H24.8581C25.391 15.9186 25.6574 15.7929 25.6574 15.5414C25.6574 15.4576 25.6308 15.3738 25.5775 15.2899L21.7142 10.7382C21.4123 10.3861 21.2613 10.0089 21.2613 9.60651C21.2613 9.20414 21.4034 8.81854 21.6876 8.4497C21.9185 8.1144 22.367 7.55695 23.0331 6.77737C23.6992 5.99778 24.2809 5.26849 24.7782 4.5895C25.2756 3.9105 25.6042 3.29438 25.764 2.74112L25.8439 2.4142C25.8262 2.38067 25.8173 2.32618 25.8173 2.25074C25.8173 2.1753 25.8084 2.11243 25.7907 2.06213H21.6077C21.3412 2.16272 21.1281 2.31361 20.9682 2.51479L20.8084 2.9926C20.3643 4.14941 19.2009 5.93491 17.3181 8.34911C16.9451 8.68442 16.5099 8.85207 16.0126 8.85207Z" fill="#666666"/>
</symbol>

<symbol viewBox="0 0 24 19" fill="none" id="icon-youtube">
<path d="M15.8509 8.79275L10.6145 5.30184C10.5159 5.23691 10.4016 5.19985 10.2837 5.19459C10.1657 5.18934 10.0486 5.21608 9.94459 5.27198C9.84061 5.32789 9.75368 5.41087 9.69302 5.51215C9.63236 5.61343 9.60022 5.72924 9.6 5.84729V12.8291C9.60013 12.9481 9.6327 13.0648 9.69421 13.1667C9.75572 13.2686 9.84384 13.3518 9.94909 13.4073C10.0524 13.4631 10.1691 13.4895 10.2864 13.4837C10.4037 13.478 10.5172 13.4402 10.6145 13.3746L15.8509 9.88366C15.9409 9.82395 16.0148 9.7429 16.0658 9.64772C16.1169 9.55255 16.1436 9.44621 16.1436 9.3382C16.1436 9.23019 16.1169 9.12385 16.0658 9.02868C16.0148 8.93351 15.9409 8.85245 15.8509 8.79275ZM10.9091 11.6073V7.06911L14.3127 9.3382L10.9091 11.6073ZM23.3891 3.04366C23.2942 2.67547 23.1131 2.33511 22.8609 2.05061C22.6086 1.76611 22.2924 1.54561 21.9382 1.40729C18.2182 -0.0217993 12.2509 1.91553e-05 12 1.91553e-05C11.7491 1.91553e-05 5.78182 -0.0217993 2.06182 1.40729C1.70764 1.54561 1.3914 1.76611 1.13914 2.05061C0.886889 2.33511 0.705838 2.67547 0.610909 3.04366C0.327273 4.11275 0 6.07638 0 9.3382C0 12.6 0.327273 14.5637 0.610909 15.6327C0.705838 16.0009 0.886889 16.3413 1.13914 16.6258C1.3914 16.9103 1.70764 17.1308 2.06182 17.2691C5.78182 18.6982 11.7491 18.6764 12 18.6764H12.0764C12.8291 18.6764 18.3927 18.6327 21.9382 17.2691C22.2924 17.1308 22.6086 16.9103 22.8609 16.6258C23.1131 16.3413 23.2942 16.0009 23.3891 15.6327C23.6727 14.5637 24 12.6 24 9.3382C24 6.07638 23.6727 4.11275 23.3891 3.04366ZM22.1236 15.3055C22.0807 15.472 21.999 15.6259 21.8853 15.7548C21.7715 15.8838 21.6289 15.984 21.4691 16.0473C17.9782 17.3891 12.0655 17.3673 12 17.3673C11.9345 17.3673 6.02182 17.3891 2.53091 16.0473C2.37107 15.984 2.22846 15.8838 2.11471 15.7548C2.00096 15.6259 1.91929 15.472 1.87636 15.3055C1.61455 14.3018 1.30909 12.4582 1.30909 9.3382C1.30909 6.2182 1.61455 4.37457 1.87636 3.37093C1.91929 3.20445 2.00096 3.05047 2.11471 2.92156C2.22846 2.79264 2.37107 2.69243 2.53091 2.62911C6.02182 1.28729 11.9345 1.30911 12 1.30911C12.0655 1.30911 17.9782 1.28729 21.4691 2.62911C21.6289 2.69243 21.7715 2.79264 21.8853 2.92156C21.999 3.05047 22.0807 3.20445 22.1236 3.37093C22.3855 4.37457 22.6909 6.2182 22.6909 9.3382C22.6909 12.4582 22.3855 14.3018 22.1236 15.3055Z" fill="#666666"/>
</symbol>

<symbol viewBox="0 0 20 18" fill="none" id="icon-telegram">
<path fill-rule="evenodd" clip-rule="evenodd" d="M19.4608 0.152905C19.6393 0.302216 19.7255 0.534898 19.6872 0.764481L17.0611 16.5214C17.0244 16.7411 16.8789 16.9273 16.6745 17.0159C16.47 17.1045 16.2346 17.0833 16.0493 16.9597L8.17082 11.7074C8.01771 11.6054 7.91447 11.4437 7.88624 11.2619C7.858 11.08 7.90738 10.8947 8.02233 10.751L10.633 7.48773L6.27303 10.3944C6.077 10.525 5.82597 10.5407 5.61524 10.4353L0.362931 7.80915C0.127693 7.69153 -0.0146529 7.44488 0.00119976 7.18235C0.0170525 6.91983 0.188044 6.6921 0.435726 6.60364L18.8188 0.0382579C19.038 -0.0400244 19.2822 0.00359465 19.4608 0.152905ZM2.32626 7.32275L5.86168 9.09046L13.4231 4.0495C13.6925 3.86994 14.0525 3.91349 14.2712 4.1521C14.49 4.3907 14.5022 4.75314 14.3 5.00591L9.49502 11.0121L15.9328 15.3039L18.2083 1.65058L2.32626 7.32275Z" fill="#666666"/>
</symbol>

<symbol viewBox="0 0 78 80" fill="none" id="icon-gift">
<path d="M64.02 34.71H14.03a3.17 3.17 0 0 1-3.18-3.16v-9.47a3.17 3.17 0 0 1 3.18-3.16h49.98a3.17 3.17 0 0 1 3.19 3.16v9.47a3.17 3.17 0 0 1-3.18 3.16ZM14.03 21.35c-.4 0-.74.33-.74.73v9.47c0 .41.33.74.74.74h49.98c.41 0 .75-.33.75-.74v-9.47c0-.4-.34-.73-.75-.73H14.03Z" fill="#fff"/><path d="M57.04 67.15H21a6.11 6.11 0 0 1-6.13-6.09V33.5c0-.67.55-1.2 1.22-1.2.68 0 1.22.53 1.22 1.2v27.56A3.68 3.68 0 0 0 21 64.73h36.04a3.68 3.68 0 0 0 3.7-3.67V33.5a1.22 1.22 0 0 1 2.44 0v27.56a6.11 6.11 0 0 1-6.14 6.09Z" fill="#fff"/><path d="M39.02 67.15c-.67 0-1.22-.54-1.22-1.21V33.5c0-.67.55-1.2 1.22-1.2.68 0 1.22.53 1.22 1.2v32.44c0 .67-.54 1.2-1.22 1.2ZM23.81 21.34a7.8 7.8 0 0 1-3.17-10.6A7.9 7.9 0 0 1 31.3 7.6c5.82 3.13 8.96 11.86 9.09 12.23l-2.3.8c-.03-.08-2.96-8.22-7.95-10.9a5.46 5.46 0 0 0-7.36 2.17 5.39 5.39 0 0 0 2.2 7.32l-1.17 2.13Z" fill="#fff"/><path d="m54.23 21.34-1.16-2.13a5.38 5.38 0 0 0-1.03-9.92 5.43 5.43 0 0 0-4.14.43c-4.98 2.68-7.91 10.82-7.94 10.9l-2.3-.8c.13-.37 3.27-9.1 9.08-12.23a7.86 7.86 0 0 1 11.29 9.1c-.6 2-1.95 3.66-3.8 4.65ZM61.95 50.93H16.09c-.67 0-1.22-.54-1.22-1.21 0-.67.55-1.21 1.22-1.21h45.86c.67 0 1.22.54 1.22 1.21 0 .67-.55 1.21-1.22 1.21Z" fill="#fff"/></symbol>

<symbol viewBox="0 0 19 14" fill="none" id="icon-letter">
<line x1="0.65" y1="5.84766" x2="0.65" y2="13.8477" stroke="#222222" stroke-width="1.3"/>
<line x1="17.65" y1="5.84766" x2="17.65" y2="13.8477" stroke="#222222" stroke-width="1.3"/>
<line y1="13.1977" x2="18" y2="13.1977" stroke="#222222" stroke-width="1.3"/>
<line y1="1.19766" x2="18" y2="1.19766" stroke="#222222" stroke-width="1.3"/>
<path d="M17.35 3.02975L9.00002 9.5242L0.65 3.02975V1.49766H3.5L9.00002 1.49766H14H17.35V3.02975Z" stroke="#222222" stroke-width="1.3"/>
</symbol>

<symbol viewBox="0 0 20 21" fill="none" id="icon-call">
<g clip-path="url(#clip0_153_253)">
<path d="M17.9 9.75275H9.39999V10.9569H17.9L15.8 13.0641L16.7 13.9672L19.8 10.8565C19.8974 10.7263 19.95 10.5678 19.95 10.405C19.95 10.2421 19.8974 10.0837 19.8 9.95344L16.7 6.84277L15.8 7.74587L17.9 9.75275Z" fill="black"/>
<path d="M8.10001 19.7872V13.5659C8.08846 13.41 8.02154 13.2635 7.91142 13.153C7.80131 13.0425 7.65531 12.9754 7.50001 12.9638H3.10001C3.10516 13.2815 3.23325 13.5848 3.45718 13.8095C3.68112 14.0342 3.98336 14.1627 4.30001 14.1679H6.80001V19.1851H3.10001C2.86326 19.2 2.62591 19.1676 2.40176 19.0896C2.17762 19.0117 1.97115 18.8898 1.79436 18.7311C1.61757 18.5723 1.47399 18.3799 1.37196 18.165C1.26992 17.9501 1.21148 17.717 1.20001 17.4793V3.43111C1.19181 2.96681 1.36516 2.51774 1.68292 2.18013C2.00069 1.84252 2.43758 1.64322 2.90001 1.62492H6.80001V6.64212H4.40001C4.08336 6.64729 3.78112 6.77581 3.55718 7.00052C3.33325 7.22523 3.20516 7.52851 3.20001 7.84625H7.60001C7.75531 7.83466 7.90131 7.76751 8.01142 7.65701C8.12154 7.54651 8.18846 7.40002 8.20001 7.24418V0.922517C8.15232 0.76584 8.06117 0.626022 7.93721 0.519407C7.81325 0.412792 7.66161 0.343785 7.50001 0.320453H3.10001C2.70599 0.307054 2.31321 0.371716 1.94411 0.510744C1.57501 0.649771 1.23684 0.860436 0.948933 1.13069C0.661026 1.40095 0.42903 1.7255 0.266207 2.08579C0.103385 2.44608 0.01293 2.83504 1.46306e-05 3.23043V17.1782C-0.0289644 17.5773 0.0246504 17.978 0.157487 18.3552C0.290324 18.7324 0.499509 19.078 0.771886 19.3701C1.04426 19.6623 1.37394 19.8947 1.74019 20.0529C2.10643 20.211 2.50132 20.2913 2.90001 20.2889H7.50001C7.5735 20.304 7.64943 20.3022 7.72216 20.2839C7.7949 20.2655 7.86259 20.2309 7.92021 20.1828C7.97783 20.1346 8.02391 20.074 8.05504 20.0055C8.08616 19.9371 8.10153 19.8624 8.10001 19.7872Z" fill="black"/>
</g>
<defs>
<clipPath id="clip0_153_253">
<rect width="20" height="20.0688" fill="white" transform="translate(0 0.320435)"/>
</clipPath>
</defs>
</symbol>

</svg>
